{
.appVersion = "3151";
.formatVersion = 3;
DisplayStrings = (
zY
);
axes = (
{
name = Weight;
tag = wght;
}
);
date = "2024-03-01 16:30:37 +0000";
familyName = "New Font";
fontMaster = (
{
axesValues = (
0
);
customParameters = (
{
name = "Master Icon Glyph Name";
value = A;
}
);
guides = (
{
pos = (183,350);
},
{
pos = (199,435);
}
);
id = m01;
metricValues = (
{
over = 16;
pos = 800;
},
{
over = 16;
pos = 700;
},
{
over = 16;
pos = 500;
},
{
over = -16;
},
{
over = -16;
pos = -200;
},
{
over = -16;
}
);
name = Thin;
},
{
axesValues = (
800
);
customParameters = (
{
name = "Master Icon Glyph Name";
value = A;
}
);
guides = (
{
pos = (361,287);
},
{
pos = (481,219);
},
{
pos = (475,485);
},
{
pos = (352,350);
},
{
pos = (363,417);
}
);
id = m005;
metricValues = (
{
pos = 800;
},
{
pos = 700;
},
{
pos = 500;
},
{
},
{
pos = -200;
},
{
}
);
name = Black;
}
);
glyphs = (
{
glyphname = A;
lastChange = "2024-03-08 20:17:48 +0000";
layers = (
{
layerId = m01;
shapes = (
{
closed = 1;
nodes = (
(61,0,l),
(61,492,l),
(175,689,l),
(461,689,l),
(575,492,l),
(575,0,l),
(585,0,l),
(585,495,l),
(467,700,l),
(168,700,l),
(50,495,l),
(50,0,l)
);
},
{
closed = 1;
nodes = (
(58,360,o),
(58,350,o),
(58,350,c),
(579,350,l),
(579,360,l),
(58,360,l)
);
}
);
width = 635;
},
{
layerId = m005;
shapes = (
{
closed = 1;
nodes = (
(305,0,l),
(305,459,l),
(323,497,l),
(382,497,l),
(400,459,l),
(400,0,l),
(655,0,l),
(655,502,l),
(540,700,l),
(167,700,l),
(50,502,l),
(50,0,l)
);
},
{
closed = 1;
nodes = (
(83,417,o),
(83,172,o),
(83,172,c),
(624,172,l),
(624,417,l),
(83,417,l)
);
}
);
width = 705;
}
);
unicode = (65,97);
},
{
glyphname = B;
lastChange = "2024-03-08 20:17:48 +0000";
layers = (
{
guides = (
{
angle = 90;
pos = (455,636);
}
);
layerId = m01;
shapes = (
{
closed = 1;
nodes = (
(465,0,l),
(567,178,l),
(468,350,l),
(567,522,l),
(465,700,l),
(54,700,l),
(54,689,l),
(458,689,l),
(555,522,l),
(455,350,l),
(555,178,l),
(458,11,l),
(54,11,l),
(54,0,l)
);
},
{
closed = 1;
nodes = (
(61,0,l),
(61,700,l),
(50,700,l),
(50,0,l)
);
}
);
width = 577;
},
{
guides = (
{
angle = 90;
pos = (523,524);
}
);
layerId = m005;
shapes = (
{
closed = 1;
nodes = (
(572,0,l),
(702,229,l),
(625,358,l),
(703,496,l),
(586,700,l),
(270,700,l),
(278,485,l),
(382,485,l),
(419,420,l),
(381,355,l),
(419,286,l),
(382,219,l),
(231,219,l),
(280,0,l)
);
},
{
closed = 1;
nodes = (
(306,0,l),
(305,700,l),
(50,700,l),
(50,0,l)
);
}
);
width = 713;
}
);
unicode = (66,98);
},
{
glyphname = C;
lastChange = "2024-03-08 20:17:48 +0000";
layers = (
{
layerId = m01;
shapes = (
{
closed = 1;
nodes = (
(212,700,l),
(11,352,l),
(10,350,l),
(212,0,l),
(613,0,l),
(613,11,l),
(218,11,l),
(22,350,l),
(218,689,l),
(613,689,l),
(613,700,l)
);
}
);
width = 663;
},
{
layerId = m005;
shapes = (
{
closed = 1;
nodes = (
(212,700,l),
(11,353,l),
(10,351,l),
(213,0,l),
(639,0,l),
(639,219,l),
(375,219,l),
(299,351,l),
(376,485,l),
(639,485,l),
(639,700,l)
);
}
);
width = 689;
}
);
unicode = (67,99);
},
{
glyphname = D;
lastChange = "2024-03-08 20:17:48 +0000";
layers = (
{
layerId = m01;
shapes = (
{
closed = 1;
nodes = (
(455,700,l),
(54,700,l),
(54,689,l),
(449,689,l),
(649,352,l),
(456,11,l),
(59,11,l),
(59,0,l),
(462,0,l),
(660,352,l)
);
},
{
closed = 1;
nodes = (
(50,0,l),
(61,0,l),
(61,700,l),
(50,700,l)
);
}
);
width = 670;
},
{
layerId = m005;
shapes = (
{
closed = 1;
nodes = (
(577,700,l),
(69,700,l),
(103,485,l),
(417,485,l),
(495,352,l),
(419,218,l),
(104,218,l),
(74,0,l),
(584,0,l),
(782,352,l)
);
},
{
closed = 1;
nodes = (
(50,0,l),
(305,0,l),
(305,700,l),
(50,700,l)
);
}
);
width = 792;
}
);
unicode = (68,100);
},
{
glyphname = E;
lastChange = "2024-03-08 20:17:48 +0000";
layers = (
{
layerId = m01;
shapes = (
{
closed = 1;
nodes = (
(61,0,l),
(61,696,l),
(61,700,l),
(50,700,l),
(50,0,l)
);
},
{
closed = 1;
nodes = (
(492,0,l),
(492,11,l),
(57,11,l),
(57,0,l)
);
},
{
closed = 1;
nodes = (
(434,350,l),
(434,360,l),
(55,360,l),
(55,350,l)
);
},
{
closed = 1;
nodes = (
(492,689,l),
(492,700,l),
(59,700,l),
(59,689,l)
);
}
);
width = 502;
},
{
layerId = m005;
shapes = (
{
closed = 1;
nodes = (
(300,0,l),
(300,696,l),
(141,700,l),
(50,700,l),
(50,0,l)
);
},
{
closed = 1;
nodes = (
(576,0,l),
(576,214,l),
(137,214,l),
(137,0,l)
);
},
{
closed = 1;
nodes = (
(534,253,l),
(534,452,l),
(155,452,l),
(155,253,l)
);
},
{
closed = 1;
nodes = (
(576,490,l),
(576,700,l),
(139,700,l),
(139,490,l)
);
}
);
width = 596;
}
);
unicode = (69,101);
},
{
glyphname = F;
lastChange = "2024-03-08 20:17:48 +0000";
layers = (
{
layerId = m01;
shapes = (
{
closed = 1;
nodes = (
(61,0,l),
(61,700,l),
(50,700,l),
(50,0,l)
);
},
{
closed = 1;
nodes = (
(438,350,l),
(438,361,l),
(56,361,l),
(56,350,l)
);
},
{
closed = 1;
nodes = (
(496,689,l),
(496,700,l),
(57,700,l),
(57,689,l)
);
}
);
width = 506;
},
{
layerId = m005;
shapes = (
{
closed = 1;
nodes = (
(300,0,l),
(300,700,l),
(50,700,l),
(50,0,l)
);
},
{
closed = 1;
nodes = (
(534,253,l),
(534,452,l),
(155,452,l),
(155,253,l)
);
},
{
closed = 1;
nodes = (
(576,490,l),
(576,700,l),
(139,700,l),
(139,490,l)
);
}
);
width = 596;
}
);
unicode = (70,102);
},
{
glyphname = G;
lastChange = "2024-03-08 20:17:48 +0000";
layers = (
{
layerId = m01;
shapes = (
{
closed = 1;
nodes = (
(627,0,l),
(729,176,l),
(729,355,l),
(508,355,l),
(508,344,l),
(718,344,l),
(718,179,l),
(621,11,l),
(219,11,l),
(23,350,l),
(219,689,l),
(621,689,l),
(719,520,l),
(728,525,l),
(627,700,l),
(212,700,l),
(10,350,l),
(212,0,l)
);
}
);
width = 779;
},
{
layerId = m005;
shapes = (
{
closed = 1;
nodes = (
(671,0,l),
(783,176,l),
(783,440,l),
(453,440,l),
(453,260,l),
(552,260,l),
(528,219,l),
(528,219,l),
(362,219,l),
(285,350,l),
(365,486,l),
(508,486,l),
(524,460,l),
(783,460,l),
(642,700,l),
(222,700,l),
(20,350,l),
(222,0,l)
);
}
);
width = 823;
}
);
unicode = (71,103);
},
{
glyphname = H;
lastChange = "2024-03-08 20:17:48 +0000";
layers = (
{
layerId = m01;
shapes = (
{
closed = 1;
nodes = (
(585,0,l),
(585,700,l),
(574,700,l),
(574,0,l)
);
},
{
closed = 1;
nodes = (
(61,0,l),
(61,700,l),
(50,700,l),
(50,0,l)
);
},
{
closed = 1;
nodes = (
(577,350,l),
(577,360,l),
(58,360,l),
(58,350,l)
);
}
);
width = 635;
},
{
layerId = m005;
shapes = (
{
closed = 1;
nodes = (
(654,0,l),
(654,700,l),
(404,700,l),
(404,0,l)
);
},
{
closed = 1;
nodes = (
(300,0,l),
(300,700,l),
(50,700,l),
(50,0,l)
);
},
{
closed = 1;
nodes = (
(504,236,l),
(504,481,l),
(125,481,l),
(125,236,l)
);
}
);
width = 704;
}
);
unicode = (72,104);
},
{
glyphname = I;
lastChange = "2024-03-08 20:17:48 +0000";
layers = (
{
layerId = m01;
shapes = (
{
closed = 1;
nodes = (
(61,0,l),
(61,700,l),
(50,700,l),
(50,0,l)
);
}
);
width = 111;
},
{
layerId = m005;
shapes = (
{
closed = 1;
nodes = (
(300,0,l),
(300,700,l),
(50,700,l),
(50,0,l)
);
}
);
width = 350;
}
);
unicode = (73,105);
},
{
glyphname = J;
lastChange = "2024-03-09 20:34:52 +0000";
layers = (
{
layerId = m01;
shapes = (
{
closed = 1;
nodes = (
(421,0,l),
(521,176,l),
(521,700,l),
(510,700,l),
(510,179,l),
(414,11,l),
(157,11,l),
(60,180,l),
(50,175,l),
(150,0,l)
);
},
{
closed = 1;
nodes = (
(519,689,l),
(519,700,l),
(214,700,l),
(214,689,l)
);
}
);
width = 571;
},
{
layerId = m005;
shapes = (
{
closed = 1;
nodes = (
(546,0,l),
(646,176,l),
(646,700,l),
(396,700,l),
(396,293,l),
(354,219,l),
(301,219,l),
(277,261,l),
(10,261,l),
(155,0,l)
);
},
{
closed = 1;
nodes = (
(644,485,l),
(644,700,l),
(240,700,l),
(240,485,l)
);
}
);
width = 696;
}
);
unicode = (74,106);
},
{
glyphname = K;
lastChange = "2024-03-08 20:17:48 +0000";
layers = (
{
layerId = m01;
shapes = (
{
closed = 1;
nodes = (
(540,0,l),
(338,349,l),
(540,700,l),
(528,700,l),
(327,352,l),
(326,349,l),
(528,0,l)
);
},
{
closed = 1;
nodes = (
(61,0,l),
(61,700,l),
(50,700,l),
(50,0,l)
);
},
{
closed = 1;
nodes = (
(332,343,l),
(332,353,l),
(55,353,l),
(55,343,l)
);
}
);
width = 560;
},
{
layerId = m005;
shapes = (
{
closed = 1;
nodes = (
(755,0,l),
(553,349,l),
(755,700,l),
(480,700,l),
(279,352,l),
(278,349,l),
(480,0,l)
);
},
{
closed = 1;
nodes = (
(300,0,l),
(300,700,l),
(50,700,l),
(50,0,l)
);
},
{
closed = 1;
nodes = (
(430,257,l),
(430,443,l),
(153,443,l),
(153,257,l)
);
}
);
width = 765;
}
);
unicode = (75,107);
},
{
glyphname = L;
lastChange = "2024-03-08 20:17:48 +0000";
layers = (
{
layerId = m01;
shapes = (
{
closed = 1;
nodes = (
(61,0,l),
(61,700,l),
(50,700,l),
(50,0,l)
);
},
{
closed = 1;
nodes = (
(492,0,l),
(492,11,l),
(57,11,l),
(57,0,l)
);
}
);
width = 600;
},
{
layerId = m005;
shapes = (
{
closed = 1;
nodes = (
(300,0,l),
(300,700,l),
(50,700,l),
(50,0,l)
);
},
{
closed = 1;
nodes = (
(556,0,l),
(556,224,l),
(117,224,l),
(117,0,l)
);
}
);
width = 576;
}
);
unicode = (76,108);
},
{
glyphname = M;
lastChange = "2024-03-08 20:17:48 +0000";
layers = (
{
layerId = m01;
shapes = (
{
closed = 1;
nodes = (
(541,0,l),
(541,485,l),
(659,689,l),
(893,689,l),
(1010,485,l),
(1010,0,l),
(1021,0,l),
(1021,487,l),
(899,700,l),
(652,700,l),
(530,487,l),
(530,0,l)
);
},
{
closed = 1;
nodes = (
(61,0,l),
(61,488,l),
(50,488,l),
(50,0,l)
);
},
{
closed = 1;
nodes = (
(541,0,l),
(541,487,l),
(418,700,l),
(172,700,l),
(50,488,l),
(60,483,l),
(178,689,l),
(412,689,l),
(530,485,l),
(530,0,l)
);
}
);
width = 1071;
},
{
guides = (
{
pos = (696,417);
}
);
layerId = m005;
shapes = (
{
closed = 1;
nodes = (
(669,0,l),
(669,417,l),
(709,485,l),
(755,485,l),
(795,417,l),
(795,0,l),
(1045,0,l),
(1045,487,l),
(923,700,l),
(579,700,l),
(508,576,l),
(512,0,l)
);
},
{
closed = 1;
nodes = (
(300,0,l),
(300,509,l),
(50,485,l),
(50,0,l)
);
},
{
closed = 1;
nodes = (
(588,0,l),
(591,569,l),
(515,700,l),
(177,700,l),
(50,485,l),
(300,417,l),
(338,485,l),
(386,485,l),
(424,418,l),
(424,0,l)
);
}
);
width = 1095;
}
);
unicode = (77,109);
},
{
glyphname = N;
lastChange = "2024-03-08 20:17:48 +0000";
layers = (
{
layerId = m01;
shapes = (
{
closed = 1;
nodes = (
(602,0,l),
(602,487,l),
(482,700,l),
(176,700,l),
(50,487,l),
(61,481,l),
(181,689,l),
(477,689,l),
(591,487,l),
(591,0,l)
);
},
{
closed = 1;
nodes = (
(61,0,l),
(61,487,l),
(50,487,l),
(50,0,l)
);
}
);
width = 650;
},
{
layerId = m005;
shapes = (
{
closed = 1;
nodes = (
(659,0,l),
(659,487,l),
(539,700,l),
(167,700,l),
(41,487,l),
(210,277,l),
(330,485,l),
(377,485,l),
(414,417,l),
(414,0,l)
);
},
{
closed = 1;
nodes = (
(291,0,l),
(291,487,l),
(41,487,l),
(41,0,l)
);
}
);
width = 709;
}
);
unicode = (78,110);
},
{
glyphname = O;
lastChange = "2024-03-08 20:17:48 +0000";
layers = (
{
layerId = m01;
shapes = (
{
closed = 1;
nodes = (
(837,352,l),
(634,696,l),
(632,699,l),
(212,700,l),
(12,353,l),
(10,351,l),
(212,1,l),
(639,0,l)
);
},
{
closed = 1;
nodes = (
(218,12,l),
(23,351,l),
(218,689,l),
(626,688,l),
(825,351,l),
(633,11,l)
);
}
);
width = 847;
},
{
layerId = m005;
shapes = (
{
closed = 1;
nodes = (
(847,352,l),
(643,699,l),
(562,699,l),
(212,700,l),
(12,353,l),
(10,351,l),
(212,1,l),
(649,0,l)
);
},
{
closed = 1;
nodes = (
(367,219,l),
(291,351,l),
(368,485,l),
(487,485,l),
(566,351,l),
(491,219,l)
);
}
);
width = 847;
}
);
unicode = (79,111);
},
{
glyphname = P;
lastChange = "2024-03-08 20:17:48 +0000";
layers = (
{
layerId = m01;
shapes = (
{
closed = 1;
nodes = (
(50,700,l),
(50,1,l),
(61,1,l),
(61,283,l),
(417,283,l),
(537,492,l),
(417,700,l)
);
},
{
closed = 1;
nodes = (
(61,689,l),
(411,689,l),
(525,492,l),
(411,295,l),
(61,295,l)
);
}
);
width = 600;
},
{
layerId = m005;
shapes = (
{
closed = 1;
nodes = (
(50,700,l),
(50,1,l),
(300,1,l),
(300,204,l),
(513,205,l),
(664,451,l),
(516,700,l)
);
},
{
closed = 1;
nodes = (
(300,484,l),
(377,484,l),
(396,452,l),
(377,421,l),
(300,421,l)
);
}
);
width = 686;
}
);
unicode = (80,112);
},
{
glyphname = Q;
lastChange = "2024-03-11 01:28:15 +0000";
layers = (
{
layerId = m01;
shapes = (
{
closed = 1;
nodes = (
(579,0,l),
(579,0,l),
(579,0,l),
(579,0,l),
(777,352,l),
(571,700,l),
(232,700,l),
(30,351,l),
(232,0,l)
);
},
{
closed = 1;
nodes = (
(43,351,l),
(238,689,l),
(566,688,l),
(765,351,l),
(573,11,l),
(238,11,l)
);
},
{
closed = 1;
nodes = (
(756,0,l),
(587,293,l),
(578,288,l),
(743,0,l)
);
}
);
width = 787;
},
{
background = {
shapes = (
{
closed = 1;
nodes = (
(487,0,l),
(529,73,l),
(571,0,l),
(649,0,l),
(847,352,l),
(643,700,l),
(212,700,l),
(10,351,l),
(212,0,l)
);
},
{
closed = 1;
nodes = (
(291,351,l),
(368,485,l),
(487,485,l),
(566,351,l),
(491,219,l),
(367,219,l)
);
},
{
closed = 1;
nodes = (
(840,0,l),
(636,350,l),
(368,350,l),
(571,0,l)
);
}
);
};
layerId = m005;
shapes = (
{
closed = 1;
nodes = (
(487,0,l),
(529,73,l),
(571,0,l),
(649,0,l),
(847,352,l),
(641,700,l),
(212,700,l),
(10,351,l),
(212,0,l)
);
},
{
closed = 1;
nodes = (
(291,351,l),
(368,485,l),
(487,485,l),
(566,351,l),
(491,219,l),
(367,219,l)
);
},
{
closed = 1;
nodes = (
(837,0,l),
(634,350,l),
(368,350,l),
(570,0,l)
);
}
);
width = 949;
}
);
unicode = (81,113);
},
{
glyphname = R;
lastChange = "2024-03-08 20:17:48 +0000";
layers = (
{
layerId = m01;
shapes = (
{
closed = 1;
nodes = (
(412,286,l),
(576,0,l),
(586,6,l),
(421,291,l)
);
},
{
closed = 1;
nodes = (
(50,700,l),
(50,1,l),
(61,1,l),
(61,283,l),
(417,283,l),
(537,492,l),
(417,700,l)
);
},
{
closed = 1;
nodes = (
(61,689,l),
(411,689,l),
(525,492,l),
(411,295,l),
(61,295,l)
);
}
);
width = 650;
},
{
layerId = m005;
shapes = (
{
closed = 1;
nodes = (
(309,286,l),
(473,0,l),
(744,0,l),
(579,285,l)
);
},
{
closed = 1;
nodes = (
(50,700,l),
(50,1,l),
(300,1,l),
(300,204,l),
(553,205,l),
(704,451,l),
(556,700,l)
);
},
{
closed = 1;
nodes = (
(300,484,l),
(417,484,l),
(436,452,l),
(417,421,l),
(300,421,l)
);
}
);
width = 784;
}
);
unicode = (82,114);
},
{
glyphname = S;
lastChange = "2024-03-08 20:17:48 +0000";
layers = (
{
layerId = m01;
shapes = (
{
closed = 1;
nodes = (
(103,700,l),
(0,523,l),
(103,346,l),
(419,346,l),
(515,180,l),
(419,11,l),
(84,11,l),
(84,0,l),
(425,0,l),
(528,180,l),
(425,357,l),
(109,357,l),
(13,523,l),
(109,689,l),
(458,689,l),
(458,700,l)
);
}
);
width = 600;
},
{
layerId = m005;
shapes = (
{
closed = 1;
nodes = (
(147,700,l),
(2,469,l),
(121,264,l),
(371,264,l),
(386,238,l),
(371,209,l),
(48,209,l),
(48,0,l),
(525,0,l),
(647,236,l),
(523,450,l),
(286,450,l),
(269,478,l),
(285,504,l),
(598,504,l),
(598,700,l)
);
}
);
width = 600;
}
);
unicode = (83,115);
},
{
glyphname = T;
lastChange = "2024-03-08 20:17:48 +0000";
layers = (
{
layerId = m01;
shapes = (
{
closed = 1;
nodes = (
(50,689,l),
(574,689,l),
(574,700,l),
(50,700,l)
);
},
{
closed = 1;
nodes = (
(307,0,l),
(318,0,l),
(318,700,l),
(307,700,l)
);
}
);
width = 624;
},
{
layerId = m005;
shapes = (
{
closed = 1;
nodes = (
(50,484,l),
(686,485,l),
(686,700,l),
(50,699,l)
);
},
{
closed = 1;
nodes = (
(246,0,l),
(496,0,l),
(496,700,l),
(246,700,l)
);
}
);
width = 736;
}
);
unicode = (84,116);
},
{
glyphname = U;
lastChange = "2024-03-08 20:17:48 +0000";
layers = (
{
layerId = m01;
shapes = (
{
closed = 1;
nodes = (
(591,214,l),
(476,11,l),
(182,11,l),
(61,217,l),
(50,213,l),
(176,0,l),
(482,0,l),
(602,213,l),
(602,700,l),
(591,700,l)
);
},
{
closed = 1;
nodes = (
(50,213,l),
(61,213,l),
(61,700,l),
(50,700,l)
);
}
);
width = 652;
},
{
layerId = m005;
shapes = (
{
closed = 1;
nodes = (
(423,283,l),
(386,215,l),
(339,215,l),
(219,423,l),
(50,213,l),
(176,0,l),
(548,0,l),
(668,213,l),
(668,700,l),
(423,700,l)
);
},
{
closed = 1;
nodes = (
(50,213,l),
(300,213,l),
(300,700,l),
(50,700,l)
);
}
);
width = 718;
}
);
unicode = (85,117);
},
{
glyphname = V;
lastChange = "2024-03-11 00:54:52 +0000";
layers = (
{
layerId = m01;
shapes = (
{
closed = 1;
nodes = (
(652,700,l),
(652,421,l),
(415,11,l),
(298,11,l),
(61,421,l),
(61,700,l),
(50,700,l),
(50,418,l),
(290,2,l),
(291,0,l),
(421,0,l),
(663,418,l),
(663,700,l)
);
}
);
width = 713;
},
{
guides = (
{
pos = (424,382);
}
);
layerId = m005;
shapes = (
{
closed = 1;
nodes = (
(446,700,l),
(446,411,l),
(357,249,l),
(412,249,l),
(321,412,l),
(321,700,l),
(61,700,l),
(61,379,l),
(280,2,l),
(281,0,l),
(487,0,l),
(706,378,l),
(706,700,l)
);
}
);
width = 713;
}
);
unicode = (86,118);
},
{
glyphname = W;
lastChange = "2024-03-08 20:17:48 +0000";
layers = (
{
layerId = m01;
shapes = (
{
closed = 1;
nodes = (
(530,213,l),
(652,0,l),
(899,0,l),
(1021,213,l),
(1021,700,l),
(1010,700,l),
(1010,215,l),
(893,11,l),
(659,11,l),
(541,215,l),
(541,700,l),
(530,700,l)
);
},
{
closed = 1;
nodes = (
(50,212,l),
(61,212,l),
(61,700,l),
(50,700,l)
);
},
{
closed = 1;
nodes = (
(530,215,l),
(412,11,l),
(178,11,l),
(60,217,l),
(50,212,l),
(172,0,l),
(418,0,l),
(541,213,l),
(541,700,l),
(530,700,l)
);
}
);
width = 1071;
},
{
layerId = m005;
shapes = (
{
closed = 1;
nodes = (
(508,124,l),
(579,0,l),
(923,0,l),
(1045,213,l),
(1045,700,l),
(795,700,l),
(795,283,l),
(755,215,l),
(709,215,l),
(669,283,l),
(669,700,l),
(512,700,l)
);
},
{
closed = 1;
nodes = (
(50,215,l),
(300,191,l),
(300,700,l),
(50,700,l)
);
},
{
closed = 1;
nodes = (
(424,282,l),
(386,215,l),
(338,215,l),
(300,283,l),
(50,215,l),
(177,0,l),
(515,0,l),
(591,131,l),
(588,700,l),
(424,700,l)
);
}
);
width = 1071;
}
);
unicode = (87,119);
},
{
glyphname = X;
lastChange = "2024-03-11 00:31:15 +0000";
layers = (
{
layerId = m01;
shapes = (
{
closed = 1;
nodes = (
(579,700,l),
(383,358,l),
(234,358,l),
(36,700,l),
(23,700,l),
(224,353,l),
(20,0,l),
(32,0,l),
(234,347,l),
(383,347,l),
(583,0,l),
(596,0,l),
(393,353,l),
(593,700,l)
);
}
);
width = 616;
},
{
layerId = m005;
shapes = (
{
closed = 1;
nodes = (
(459,700,l),
(336,485,l),
(430,485,l),
(306,700,l),
(33,700,l),
(234,353,l),
(30,0,l),
(302,0,l),
(429,219,l),
(337,219,l),
(463,0,l),
(736,0,l),
(533,353,l),
(733,700,l)
);
}
);
width = 766;
}
);
unicode = (88,120);
},
{
glyphname = Y;
lastChange = "2024-03-11 01:28:43 +0000";
layers = (
{
layerId = m01;
shapes = (
{
closed = 1;
nodes = (
(612,700,l),
(414,355,l),
(232,355,l),
(33,700,l),
(20,700,l),
(226,344,l),
(420,344,l),
(625,700,l)
);
},
{
closed = 1;
nodes = (
(317,0,l),
(328,0,l),
(329,350,l),
(318,350,l)
);
}
);
width = 623;
},
{
layerId = m005;
shapes = (
{
closed = 1;
nodes = (
(512,700,l),
(389,485,l),
(401,485,l),
(277,700,l),
(20,700,l),
(247,308,l),
(543,308,l),
(769,700,l)
);
},
{
closed = 1;
nodes = (
(267,0,l),
(517,0,l),
(518,350,l),
(268,350,l)
);
}
);
width = 789;
}
);
unicode = (89,121);
},
{
glyphname = Z;
lastChange = "2024-03-11 01:30:32 +0000";
layers = (
{
layerId = m01;
shapes = (
{
closed = 1;
nodes = (
(26,700,l),
(26,689,l),
(621,689,l),
(428,358,l),
(223,358,l),
(20,0,l),
(632,0,l),
(632,11,l),
(39,11,l),
(229,347,l),
(434,347,l),
(640,700,l)
);
}
);
width = 660;
},
{
layerId = m005;
shapes = (
{
closed = 1;
nodes = (
(55,700,l),
(55,485,l),
(372,485,l),
(347,442,l),
(281,442,l),
(30,0,l),
(770,0,l),
(770,219,l),
(422,219,l),
(446,261,l),
(504,261,l),
(759,700,l)
);
}
);
width = 800;
}
);
unicode = (90,122);
},
{
glyphname = zero;
lastChange = "2024-03-11 00:54:16 +0000";
layers = (
{
layerId = m01;
shapes = (
{
closed = 1;
nodes = (
(482,0,l),
(602,213,l),
(602,487,l),
(591,486,l),
(591,214,l),
(476,11,l),
(182,11,l),
(61,217,l),
(50,213,l),
(176,0,l)
);
},
{
closed = 1;
nodes = (
(61,213,l),
(61,487,l),
(50,487,l),
(50,213,l)
);
},
{
closed = 1;
nodes = (
(602,487,l),
(482,700,l),
(176,700,l),
(50,487,l),
(61,483,l),
(182,689,l),
(476,689,l),
(591,486,l)
);
}
);
width = 652;
},
{
layerId = m005;
shapes = (
{
closed = 1;
nodes = (
(559,0,l),
(679,213,l),
(679,485,l),
(424,484,l),
(424,287,l),
(386,219,l),
(342,219,l),
(306,287,l),
(51,213,l),
(177,0,l)
);
},
{
closed = 1;
nodes = (
(306,213,l),
(306,484,l),
(51,487,l),
(51,213,l)
);
},
{
closed = 1;
nodes = (
(679,485,l),
(559,700,l),
(177,700,l),
(51,487,l),
(306,418,l),
(342,485,l),
(386,485,l),
(436,397,l)
);
}
);
width = 729;
}
);
unicode = 48;
},
{
glyphname = one;
lastChange = "2024-03-11 00:54:19 +0000";
layers = (
{
layerId = m01;
shapes = (
{
closed = 1;
nodes = (
(111,0,l),
(111,700,l),
(100,700,l),
(100,698,l),
(100,0,l)
);
}
);
width = 211;
},
{
layerId = m005;
shapes = (
{
closed = 1;
nodes = (
(305,0,l),
(305,700,l),
(175,700,l),
(50,485,l),
(50,0,l)
);
}
);
width = 350;
}
);
unicode = 49;
},
{
glyphname = two;
lastChange = "2024-03-11 00:48:01 +0000";
layers = (
{
layerId = m01;
shapes = (
{
closed = 1;
nodes = (
(146,689,l),
(419,689,l),
(515,523,l),
(418,355,l),
(262,355,l),
(55,0,l),
(125,0,l),
(524,0,l),
(524,11,l),
(131,11,l),
(75,11,l),
(268,344,l),
(424,344,l),
(528,523,l),
(425,700,l),
(146,700,l)
);
},
{
closed = 1;
nodes = (
(158,700,l),
(146,700,l),
(48,525,l),
(61,525,l)
);
}
);
width = 600;
},
{
layerId = m005;
shapes = (
{
closed = 1;
nodes = (
(292,485,l),
(359,485,l),
(359,485,l),
(342,456,l),
(342,456,l),
(76,0,l),
(226,0,l),
(635,0,l),
(635,219,l),
(447,219,l),
(471,219,l),
(472,222,l),
(472,222,l),
(638,508,l),
(526,700,l),
(362,700,l)
);
},
{
closed = 1;
nodes = (
(410,700,l),
(171,700,l),
(32,452,l),
(276,452,l)
);
}
);
width = 683;
}
);
unicode = 50;
},
{
glyphname = three;
lastChange = "2024-03-11 01:23:52 +0000";
layers = (
{
guides = (
{
pos = (475,178);
}
);
layerId = m01;
shapes = (
{
closed = 1;
nodes = (
(442,0,l),
(544,178,l),
(445,350,l),
(544,522,l),
(442,700,l),
(141,700,l),
(141,689,l),
(435,689,l),
(532,522,l),
(432,350,l),
(532,178,l),
(435,11,l),
(141,11,l),
(141,0,l)
);
},
{
closed = 1;
nodes = (
(154,0,l),
(53,178,l),
(40,178,l),
(141,0,l)
);
},
{
closed = 1;
nodes = (
(53,522,l),
(154,700,l),
(141,700,l),
(40,522,l)
);
},
{
closed = 1;
nodes = (
(154,700,l)
);
}
);
width = 584;
},
{
guides = (
{
pos = (436,178);
}
);
layerId = m005;
shapes = (
{
closed = 1;
nodes = (
(533,0,l),
(663,229,l),
(586,358,l),
(664,496,l),
(547,700,l),
(231,700,l),
(239,485,l),
(343,485,l),
(380,420,l),
(342,355,l),
(380,286,l),
(343,219,l),
(192,219,l),
(241,0,l)
);
},
{
closed = 1;
nodes = (
(438,0,l),
(306,232,l),
(30,232,l),
(161,0,l)
);
},
{
closed = 1;
nodes = (
(306,464,l),
(439,700,l),
(163,700,l),
(30,465,l)
);
},
{
closed = 1;
nodes = (
(109,689,l)
);
}
);
width = 694;
}
);
unicode = 51;
},
{
glyphname = four;
lastChange = "2024-03-11 00:53:31 +0000";
layers = (
{
layerId = m01;
shapes = (
{
closed = 1;
nodes = (
(405,700,l),
(305,700,l),
(30,216,l),
(31,216,l),
(572,216,l),
(572,227,l),
(49,227,l),
(311,689,l),
(405,689,l)
);
},
{
closed = 1;
nodes = (
(402,0,l),
(413,0,l),
(413,700,l),
(402,700,l)
);
}
);
width = 592;
},
{
layerId = m005;
shapes = (
{
closed = 1;
nodes = (
(508,700,l),
(255,700,l),
(4,258,l),
(68,148,l),
(698,148,l),
(698,371,l),
(329,371,l),
(388,475,l),
(523,475,l)
);
},
{
closed = 1;
nodes = (
(402,0,l),
(652,0,l),
(652,700,l),
(402,700,l)
);
}
);
width = 752;
}
);
unicode = 52;
},
{
glyphname = five;
lastChange = "2024-03-11 01:08:04 +0000";
layers = (
{
layerId = m01;
shapes = (
{
closed = 1;
nodes = (
(58,700,l),
(58,435,l),
(58,435,l),
(413,435,l),
(538,219,l),
(419,11,l),
(121,11,l),
(121,0,l),
(425,0,l),
(551,219,l),
(419,446,l),
(69,446,l),
(69,689,l),
(508,689,l),
(508,700,l)
);
},
{
closed = 1;
nodes = (
(128,11,l),
(33,178,l),
(20,178,l),
(121,0,l)
);
}
);
width = 571;
},
{
layerId = m005;
shapes = (
{
closed = 1;
nodes = (
(59,700,l),
(59,352,l),
(112,258,l),
(323,258,l),
(335,237,l),
(323,216,l),
(229,216,l),
(152,1,l),
(486,0,l),
(611,219,l),
(473,454,l),
(304,455,l),
(304,487,l),
(581,487,l),
(581,700,l)
);
},
{
closed = 1;
nodes = (
(256,181,l),
(249,216,l),
(30,216,l),
(152,1,l)
);
}
);
width = 641;
}
);
unicode = 53;
},
{
glyphname = six;
lastChange = "2024-03-11 01:13:34 +0000";
layers = (
{
layerId = m01;
shapes = (
{
closed = 1;
nodes = (
(305,700,l),
(32,226,l),
(32,226,l),
(30,223,l),
(158,0,l),
(416,0,l),
(545,223,l),
(416,447,l),
(172,447,l),
(319,700,l)
);
},
{
closed = 1;
nodes = (
(44,223,l),
(166,435,l),
(409,435,l),
(531,223,l),
(409,12,l),
(166,12,l)
);
}
);
width = 575;
},
{
layerId = m005;
shapes = (
{
closed = 1;
nodes = (
(279,700,l),
(22,254,l),
(22,254,l),
(20,251,l),
(163,0,l),
(521,0,l),
(666,251,l),
(522,500,l),
(407,500,l),
(523,700,l)
);
},
{
closed = 1;
nodes = (
(290,250,l),
(307,279,l),
(384,279,l),
(401,250,l),
(384,221,l),
(307,221,l)
);
}
);
width = 700;
}
);
unicode = 54;
},
{
glyphname = seven;
lastChange = "2024-03-11 01:22:30 +0000";
layers = (
{
layerId = m01;
shapes = (
{
closed = 1;
nodes = (
(40,700,l),
(40,689,l),
(406,689,l),
(478,563,l),
(152,0,l),
(166,0,l),
(494,563,l),
(412,700,l)
);
}
);
width = 514;
},
{
layerId = m005;
shapes = (
{
closed = 1;
nodes = (
(55,700,l),
(55,486,l),
(331,485,l),
(341,468,l),
(70,0,l),
(363,0,l),
(647,488,l),
(521,700,l)
);
}
);
width = 677;
}
);
unicode = 55;
},
{
glyphname = eight;
lastChange = "2024-03-11 01:20:17 +0000";
layers = (
{
layerId = m01;
shapes = (
{
closed = 1;
nodes = (
(153,700,l),
(50,523,l),
(149,351,l),
(50,178,l),
(153,0,l),
(428,0,l),
(531,178,l),
(431,351,l),
(531,523,l),
(428,700,l)
);
},
{
closed = 1;
nodes = (
(63,523,l),
(159,689,l),
(421,689,l),
(518,523,l),
(421,356,l),
(159,356,l)
);
},
{
closed = 1;
nodes = (
(63,178,l),
(159,344,l),
(421,344,l),
(518,178,l),
(421,11,l),
(159,11,l)
);
}
);
width = 581;
},
{
layerId = m005;
shapes = (
{
closed = 1;
nodes = (
(152,700,l),
(31,492,l),
(114,350,l),
(31,210,l),
(153,0,l),
(478,0,l),
(600,211,l),
(520,350,l),
(601,489,l),
(478,700,l)
);
},
{
closed = 1;
nodes = (
(275,482,l),
(293,514,l),
(338,514,l),
(357,482,l),
(338,449,l),
(293,449,l)
);
},
{
closed = 1;
nodes = (
(275,225,l),
(296,261,l),
(339,261,l),
(360,226,l),
(339,190,l),
(294,190,l)
);
}
);
width = 631;
}
);
unicode = 56;
},
{
glyphname = nine;
lastChange = "2024-03-11 01:14:14 +0000";
layers = (
{
layerId = m01;
shapes = (
{
closed = 1;
nodes = (
(270,0,l),
(543,474,l),
(543,474,l),
(545,477,l),
(417,700,l),
(159,700,l),
(30,477,l),
(159,253,l),
(403,253,l),
(256,0,l)
);
},
{
closed = 1;
nodes = (
(44,477,l),
(166,688,l),
(409,688,l),
(531,477,l),
(409,265,l),
(166,265,l)
);
}
);
width = 600;
},
{
layerId = m005;
shapes = (
{
closed = 1;
nodes = (
(407,0,l),
(664,446,l),
(664,446,l),
(666,449,l),
(523,700,l),
(165,700,l),
(20,449,l),
(164,200,l),
(279,200,l),
(163,0,l)
);
},
{
closed = 1;
nodes = (
(285,450,l),
(302,479,l),
(379,479,l),
(396,450,l),
(379,421,l),
(302,421,l)
);
}
);
width = 600;
}
);
unicode = 57;
},
